<svg width="30" height="30" viewBox="0 0 30 30" fill="none" xmlns="http://www.w3.org/2000/svg">
<path fill-rule="evenodd" clip-rule="evenodd" d="M14.9999 0.333313C6.89992 0.333313 0.333252 6.89998 0.333252 15C0.333252 23.1 6.89992 29.6666 14.9999 29.6666C23.0999 29.6666 29.6666 23.1 29.6666 15C29.6666 6.89998 23.0999 0.333313 14.9999 0.333313ZM10.6093 17.9426C10.3578 18.1855 10.021 18.3199 9.67138 18.3169C9.32179 18.3138 8.98737 18.1736 8.74016 17.9264C8.49295 17.6792 8.35272 17.3448 8.34969 16.9952C8.34665 16.6456 8.48104 16.3088 8.72392 16.0573L14.0573 10.724C14.3073 10.474 14.6464 10.3336 14.9999 10.3336C15.3535 10.3336 15.6925 10.474 15.9426 10.724L21.2759 16.0573C21.5188 16.3088 21.6532 16.6456 21.6502 16.9952C21.6471 17.3448 21.5069 17.6792 21.2597 17.9264C21.0125 18.1736 20.678 18.3138 20.3285 18.3169C19.9789 18.3199 19.6421 18.1855 19.3906 17.9426L14.9999 13.552L10.6093 17.9426Z" fill="#693DE7"/>
</svg>
